<svg width="64" height="64" viewBox="0 0 64 64" fill="none" xmlns="http://www.w3.org/2000/svg">
<rect x="19.5" y="5.5" width="25" height="9" rx="4.5" fill="#E3F2FE" stroke="#2196F3"/>
<rect x="19.5" y="48.5" width="25" height="9" rx="4.5" fill="#E3F2FE" stroke="#2196F3"/>
<rect x="31.5" y="15" width="1" height="11" fill="#2196F3"/>
<rect x="31.5" y="37" width="1" height="11" fill="#2196F3"/>
<path d="M32.0297 25.6121L44.6042 30.5894C45.0161 30.7524 45.0282 31.3309 44.6236 31.5111L32.0496 37.1116C31.9188 37.1698 31.7694 37.1692 31.6391 37.11L19.327 31.5093C18.9271 31.3274 18.9394 30.7552 19.3466 30.5906L31.6583 25.6135C31.7773 25.5654 31.9103 25.5649 32.0297 25.6121Z" fill="#E3F2FE" stroke="#2196F3"/>
<path d="M47 31C54.732 31 61 26.299 61 20.5C61 14.701 54.732 10 47 10" stroke="#2196F3" stroke-linecap="round"/>
<path d="M17 53C9.26801 53 3 48.0751 3 42C3 35.9249 9.26801 31 17 31" stroke="#2196F3" stroke-linecap="round"/>
</svg>
